<svg width="51" height="49" viewBox="0 0 51 49" fill="none" xmlns="http://www.w3.org/2000/svg">
<path d="M48.4556 37.9732H4.39078V16.4293C4.39078 15.211 3.40164 14.2339 2.19537 14.2339C0.989109 14.2339 0 15.223 0 16.4293V46.3688C0 47.5871 0.989109 48.5642 2.19537 48.5642C3.40164 48.5642 4.39078 47.5751 4.39078 46.3688V42.364H46.2602V46.3688C46.2602 47.5871 47.2494 48.5642 48.4556 48.5642C49.6619 48.5642 50.651 47.5751 50.651 46.3688V40.1686C50.651 38.9502 49.6619 37.9732 48.4556 37.9732Z" fill="white"/>
<path d="M49.9757 28.8779H6.74316V35.1746H49.9757V28.8779Z" fill="white"/>
<path d="M47.4425 24.9336H9.27633C7.8773 24.9336 6.74316 26.0678 6.74316 27.4668V32.0264C6.74316 33.4255 7.8773 34.5596 9.27633 34.5596H47.4425C48.8415 34.5596 49.9757 33.4255 49.9757 32.0264V27.4668C49.9757 26.0678 48.8415 24.9336 47.4425 24.9336Z" fill="white"/>
<path d="M40.9284 0.0361795C40.7475 -0.0361963 40.5424 2.39963e-05 40.4097 0.144776C40.277 0.277465 40.2408 0.494584 40.3132 0.663461C40.7716 1.72497 41.0008 2.8589 41.0008 4.01691C41.0008 8.70928 37.1769 12.5331 32.4845 12.5331C31.3868 12.5331 30.3133 12.316 29.2759 11.8938C29.0949 11.8214 28.8899 11.8576 28.7572 12.0024C28.6245 12.1351 28.5883 12.3522 28.6607 12.5211C30.1564 16.0072 33.5702 18.2629 37.3579 18.2629C42.581 18.2629 46.827 14.0168 46.827 8.79367C46.827 4.93362 44.511 1.49576 40.9284 0.0361795Z" fill="white"/>
</svg>
