<svg width="720" height="621" viewBox="0 0 720 621" fill="none" xmlns="http://www.w3.org/2000/svg">
<path opacity="0.8" d="M706.221 151.972C708.318 147.87 712.769 145.54 717.331 146.161C720.595 146.607 724.808 147.948 730.055 151.016C735.483 154.19 738.762 157.308 740.737 159.999C743.374 163.592 743.493 168.448 741.114 172.206C729.439 190.648 680.885 267.401 674.261 278.801C673.587 279.961 672.75 280.913 671.795 281.68L672.388 282.026L665.104 294.56L663.622 293.693C663.351 294.482 662.986 295.272 662.529 296.062C662.059 296.867 661.617 297.996 661.203 299.417C654.164 323.424 654.376 430.407 655.052 461.056C657.064 491.894 649.428 525.695 631.309 556.875C629.873 559.342 628.393 561.763 626.862 564.129C626.545 564.623 626.226 565.113 625.903 565.606C625.56 566.126 625.214 566.644 624.873 567.157C624.802 567.261 624.732 567.368 624.658 567.468C624.573 567.595 624.487 567.723 624.403 567.845C624.212 568.132 624.019 568.41 623.828 568.688C623.782 568.762 623.731 568.835 623.683 568.905C623.454 569.24 623.223 569.571 622.989 569.898C622.978 569.921 622.967 569.94 622.953 569.956C622.709 570.303 622.458 570.652 622.214 570.999C622.194 571.038 622.168 571.073 622.143 571.103C621.944 571.384 621.739 571.661 621.54 571.939C621.353 572.21 621.164 572.473 620.97 572.734C620.89 572.846 620.808 572.955 620.728 573.065C620.479 573.414 620.229 573.751 619.977 574.088C618.973 575.451 617.949 576.791 616.906 578.108C616.608 578.489 616.308 578.865 616.009 579.243C615.752 579.565 615.497 579.889 615.234 580.208C613.425 582.452 611.57 584.634 609.672 586.755L609.665 586.75C566.443 635.132 502.949 652.445 455.474 624.683C399.235 591.798 386.774 508.126 427.645 437.791C428.833 435.749 430.049 433.742 431.3 431.774C431.944 430.747 432.601 429.731 433.267 428.728C433.601 428.225 433.933 427.724 434.269 427.226C434.606 426.73 434.944 426.231 435.283 425.739C435.626 425.246 435.965 424.753 436.312 424.263C436.654 423.779 437 423.289 437.349 422.805C437.582 422.48 437.816 422.157 438.053 421.831C438.357 421.418 438.659 421.002 438.965 420.593C439.23 420.236 439.498 419.879 439.765 419.526C440.027 419.18 440.286 418.835 440.548 418.488C440.552 418.482 440.561 418.473 440.566 418.468C440.601 418.421 440.633 418.378 440.666 418.332C440.902 418.024 441.145 417.715 441.381 417.406C441.466 417.296 441.556 417.183 441.643 417.067C441.677 417.021 441.712 416.978 441.746 416.932C441.771 416.902 441.797 416.867 441.821 416.835C441.892 416.749 441.962 416.659 442.031 416.571C442.256 416.29 442.478 416.005 442.703 415.726C442.757 415.657 442.815 415.586 442.871 415.517C443.192 415.112 443.514 414.71 443.84 414.309C443.872 414.268 443.908 414.224 443.94 414.184C444.104 413.984 444.268 413.783 444.433 413.588C444.593 413.39 444.754 413.191 444.92 412.995C445.292 412.544 445.666 412.098 446.045 411.651C446.369 411.263 446.701 410.879 447.03 410.491C447.459 409.996 447.887 409.5 448.321 409.007C460.865 394.731 475.163 383.103 490.31 374.463C490.324 374.456 490.337 374.445 490.351 374.438C496.746 370.441 503.386 367.081 510.187 364.381C548.16 344.924 621.26 301.423 636.309 284.638C637.205 283.636 637.895 282.73 638.36 281.932C638.82 281.139 639.318 280.425 639.847 279.787L639.002 279.295L646.284 266.762L646.707 267.01C646.999 265.876 647.472 264.716 648.156 263.537C656.112 249.846 696.309 171.355 706.221 151.972ZM498.307 622.871C497.572 622.794 496.838 622.711 496.105 622.619C504.598 623.7 513.297 623.593 522.019 622.367C520.951 622.515 519.886 622.646 518.822 622.764L516.686 621.514L515.793 623.046C514.921 623.117 514.052 623.176 513.182 623.22L513.184 623.218L514.812 620.415L503.559 613.833L498.307 622.871ZM483.887 617.418L491.584 621.921C489.265 621.502 486.959 620.996 484.681 620.398L482.795 619.295L482.505 619.798C482.16 619.697 481.814 619.596 481.47 619.492L481.688 619.56C486.352 620.968 491.118 621.976 495.951 622.6L501.681 612.737L490.43 606.157L483.887 617.418ZM517.773 619.639L522.356 622.319C528.951 621.37 535.556 619.783 542.093 617.587C541.661 617.732 541.228 617.874 540.795 618.013L537.448 616.055L535.377 619.62C534.394 619.885 533.407 620.136 532.426 620.376L535.573 614.959L524.317 608.377L517.773 619.639ZM442.339 437.24C441.77 438.121 441.206 439.008 440.65 439.904L440.648 439.901C439.817 441.235 439.001 442.592 438.205 443.965C401.573 507.005 412.741 582.005 463.149 611.479C468.67 614.706 474.433 617.254 480.366 619.149L480.919 618.199L469.666 611.618L468.17 614.191C467.524 613.869 466.879 613.531 466.238 613.191L467.79 610.521L456.534 603.939L455.213 606.213C454.627 605.777 454.045 605.336 453.469 604.884L454.657 602.844L444.802 597.081C443.156 595.386 441.581 593.624 440.075 591.803L442.616 593.288L449.16 582.028L437.906 575.451L433.578 582.897C433.135 582.208 432.703 581.513 432.277 580.813L436.031 574.353L425.924 568.443C425.344 567.092 424.784 565.725 424.256 564.34L430.534 553.538L419.279 546.956L419.236 547.029C419.014 545.955 418.806 544.873 418.61 543.783L425.036 532.722L416.816 527.919C416.771 527.06 416.736 526.204 416.708 525.342L426.127 530.847L432.671 519.588L421.416 513.007L416.647 521.212C416.649 519.741 416.665 518.263 416.714 516.778L419.542 511.91L417.059 510.458C417.121 509.661 417.19 508.863 417.266 508.064L420.633 510.034L427.177 498.775L419.262 494.146C419.404 493.395 419.553 492.645 419.708 491.894L428.267 496.898L434.81 485.639L423.554 479.059L422.356 481.115C423.266 477.914 424.289 474.717 425.418 471.526L429.312 464.822L428.228 464.189C428.502 463.514 428.78 462.839 429.069 462.168L430.403 462.946L436.945 451.688L434.675 450.36C435.01 449.719 435.352 449.08 435.698 448.444L438.034 449.81L444.577 438.549L442.339 437.24ZM504.648 611.958L515.901 618.54L522.444 607.276L511.191 600.696L504.648 611.958ZM538.536 614.181L543.523 617.098C547.213 615.806 550.879 614.321 554.507 612.647L556.335 609.502L545.08 602.921L538.536 614.181ZM470.758 609.742L482.011 616.323L488.554 605.063L488.553 605.062L477.301 598.482L470.758 609.742ZM525.411 606.499L536.667 613.079L543.21 601.823L531.954 595.239L525.411 606.499ZM557.992 610.977C558.147 610.899 558.302 610.821 558.457 610.743L558.211 610.598L557.992 610.977ZM491.519 604.285L502.771 610.861L509.315 599.603L498.062 593.021L491.519 604.285ZM559.301 608.722L560.744 609.565C565.066 607.285 569.319 604.735 573.479 601.926L565.845 597.462L559.301 608.722ZM457.626 602.062L468.881 608.644L475.424 597.384L464.169 590.802L457.626 602.062ZM546.175 601.041L557.43 607.62L563.974 596.361L552.719 589.78L546.175 601.041ZM512.282 598.822L523.535 605.403L530.078 594.143L518.825 587.562L512.282 598.822ZM478.389 596.604L489.641 603.183L496.185 591.923L484.933 585.343L478.389 596.604ZM444.496 594.387L455.749 600.968L462.293 589.707L451.039 583.127L444.496 594.387ZM566.936 595.586L575.455 600.566C577.058 599.444 578.647 598.283 580.219 597.084C579.872 597.348 579.524 597.61 579.176 597.87L583.605 590.247L573.479 584.325L566.936 595.586ZM533.044 593.362L544.301 599.944L550.842 588.684L539.586 582.103L533.044 593.362ZM499.153 591.146L510.406 597.727L516.949 586.466L505.697 579.887L499.153 591.146ZM465.259 588.929L476.514 595.509L483.055 584.247L471.802 577.668L465.259 588.929ZM553.809 587.903H553.81L565.064 594.484L571.606 583.224L560.352 576.644L553.809 587.903ZM583.777 594.279C584.708 593.523 585.632 592.753 586.55 591.97L585.482 591.346L583.777 594.279ZM519.914 585.687L531.168 592.266L537.711 581.007L526.457 574.427L519.914 585.687ZM586.572 589.468L588.281 590.469C591.628 587.521 594.879 584.387 598.025 581.08L593.116 578.208L586.572 589.468ZM486.021 583.469L497.274 590.049L503.817 578.788L503.818 578.786L492.565 572.21L486.021 583.469ZM574.573 582.443L574.572 582.444L584.7 588.366L591.244 577.106L581.115 571.184L574.573 582.443ZM452.129 581.253L463.382 587.832L469.926 576.568L458.673 569.991L452.129 581.253ZM540.678 580.225L551.932 586.807L558.476 575.548L547.221 568.965L540.678 580.225ZM506.786 578.009L518.038 584.587L524.581 573.328L513.33 566.747L506.786 578.009ZM472.892 575.792L484.146 582.374L490.689 571.113L479.435 564.531L472.892 575.792ZM561.442 574.768L572.697 581.348L579.241 570.089L567.985 563.507L561.442 574.768ZM438.997 573.572L450.251 580.154L456.795 568.893L445.541 562.313L438.997 573.572ZM594.207 576.333L599.552 579.459C599.809 579.181 600.065 578.902 600.32 578.622L600.314 578.62C600.701 578.192 601.093 577.762 601.479 577.331C602.25 576.464 603.014 575.588 603.774 574.7C604.155 574.258 604.529 573.811 604.904 573.358C605.279 572.911 605.653 572.455 606.023 572C606.356 571.593 606.69 571.178 607.021 570.769C607.058 570.721 607.092 570.673 607.132 570.629C607.501 570.17 607.866 569.705 608.227 569.239C608.365 569.063 608.501 568.887 608.638 568.71C608.464 568.933 608.29 569.156 608.115 569.378L600.75 565.071L594.207 576.333ZM527.549 572.549L538.803 579.129L545.347 567.868L545.346 567.866L534.093 561.289L527.549 572.549ZM493.654 570.331L504.908 576.913L511.451 565.652L500.198 559.071L493.654 570.331ZM582.206 569.309L592.334 575.229L598.877 563.968L588.749 558.048L582.206 569.309ZM459.762 568.113L471.015 574.692L477.56 563.434L477.559 563.435L466.306 556.854L459.762 568.113ZM548.311 567.087L559.565 573.669L566.108 562.408L554.853 555.828L548.311 567.087ZM425.867 565.896L437.123 572.478L443.667 561.217L432.41 554.635L425.867 565.896ZM514.421 564.873L525.672 571.453L532.216 560.193L532.215 560.191L520.964 553.613L514.421 564.873ZM480.524 562.653L491.778 569.235L498.322 557.976L487.067 551.394L480.524 562.653ZM569.075 561.63L580.33 568.21L586.873 556.949L575.619 550.371L569.075 561.63ZM601.841 563.194L609.452 567.646C610.121 566.764 610.786 565.873 611.438 564.973C611.791 564.491 612.138 564.005 612.484 563.52C612.495 563.506 612.506 563.492 612.517 563.479C612.82 563.048 613.124 562.616 613.426 562.182C613.553 562.004 613.676 561.828 613.802 561.646C613.929 561.469 614.049 561.29 614.169 561.106C614.27 560.966 614.366 560.821 614.465 560.675C614.49 560.638 614.517 560.603 614.541 560.564C614.621 560.452 614.698 560.342 614.771 560.224C615.033 559.842 615.294 559.453 615.548 559.063C616.013 558.359 616.473 557.647 616.932 556.933L608.384 551.934L601.841 563.194ZM446.632 560.438L457.885 567.017L464.428 555.758L453.175 549.178L446.632 560.438ZM535.181 559.413L546.434 565.991L552.977 554.731L541.724 548.152L535.181 559.413ZM501.287 557.193L512.542 563.773L519.086 552.514L519.084 552.515L507.831 545.935L501.287 557.193ZM589.841 556.168V556.169L599.968 562.091L606.513 550.832L596.384 544.91L589.841 556.168ZM467.396 554.978L478.647 561.559L485.191 550.298L473.938 543.717L467.396 554.978ZM555.942 553.952L567.198 560.533L573.741 549.273H573.742L562.486 542.693L555.942 553.952ZM433.501 552.76L444.757 559.342L451.3 548.081L440.045 541.5L433.501 552.76ZM522.053 551.736L533.305 558.313L539.849 547.057L528.596 540.476L522.053 551.736ZM90.8154 357.332C91.9779 353.07 96.3762 350.557 100.639 351.719L129.278 359.527C133.541 360.69 136.054 365.088 134.892 369.351L120.472 422.238L233.968 453.184L248.389 400.296C249.551 396.034 253.949 393.521 258.211 394.683L286.852 402.491C291.114 403.654 293.627 408.052 292.465 412.314L254.611 551.146C253.449 555.408 249.051 557.921 244.788 556.759L216.148 548.95C211.886 547.788 209.373 543.39 210.535 539.127L226.758 479.63L113.261 448.684L97.0381 508.182C95.8758 512.444 91.4783 514.957 87.2158 513.795L58.5752 505.986C54.3127 504.824 51.7997 500.426 52.9619 496.163L90.8154 357.332ZM609.474 550.057L618.091 555.096C617.84 555.5 617.587 555.905 617.333 556.308C617.395 556.21 617.458 556.112 617.521 556.014L617.523 556.018C618.626 554.272 619.702 552.5 620.747 550.697C622.361 547.92 623.88 545.118 625.309 542.3C625.056 542.794 624.802 543.291 624.546 543.783L616.018 538.798L609.474 550.057ZM488.158 549.518L499.412 556.099L505.956 544.839L494.701 538.258L488.158 549.518ZM576.712 548.492L576.71 548.493L587.965 555.073L594.509 543.813L583.254 537.232L576.712 548.492ZM454.265 547.3L465.519 553.88L472.062 542.621L460.808 536.04L454.265 547.3ZM542.814 546.276L554.068 552.856L560.612 541.598L560.611 541.596L549.358 535.018L542.814 546.276ZM420.372 545.084L431.626 551.665L438.169 540.404L426.915 533.823L420.372 545.084ZM508.922 544.059L520.175 550.639L526.718 539.378V539.377L515.466 532.799L508.922 544.059ZM597.473 543.034L607.601 548.956L614.145 537.695L604.016 531.773L597.473 543.034ZM475.029 541.84L486.281 548.42L492.826 537.162L481.573 530.581L475.029 541.84ZM563.576 540.815L574.833 547.396L581.376 536.136L570.12 529.556L563.576 540.815ZM441.135 539.624L452.39 546.204L458.934 534.944H458.935L447.679 528.364L441.135 539.624ZM529.688 538.6L540.938 545.178L547.481 533.918L536.229 527.34L529.688 538.6ZM293.169 436.183C294.331 431.92 298.729 429.406 302.991 430.568L318.408 434.772C322.671 435.935 325.184 440.332 324.022 444.595L298.787 537.146C297.625 541.409 293.227 543.922 288.965 542.76L273.548 538.557C269.285 537.394 266.771 532.996 267.934 528.733L293.169 436.183ZM495.791 536.38L507.046 542.963L513.589 531.702L502.335 525.121L495.791 536.38ZM584.343 535.357L595.598 541.938L602.141 530.677L590.886 524.098L584.343 535.357ZM595.804 383.181C578.82 373.252 559.55 369.759 540.06 371.902C540.907 371.812 541.755 371.732 542.603 371.661L550.971 376.555L553.994 371.352C554.811 371.373 555.626 371.412 556.44 371.457L552.845 377.649L564.098 384.23L570.423 373.341C573.742 374.057 577.015 374.968 580.237 376.067L584.86 378.771L585.316 377.984C585.991 378.264 586.663 378.551 587.329 378.85L586.735 379.868L597.99 386.449L598.812 385.036C599.424 385.428 600.032 385.825 600.631 386.231L599.868 387.548L609.648 393.268C611.836 395.218 613.921 397.279 615.893 399.433L611.907 397.104L605.364 408.362L616.615 414.94L621.616 406.334C622.092 406.968 622.555 407.61 623.013 408.259L618.493 416.039L629.744 422.616L630.644 421.072C631.034 421.857 631.41 422.642 631.781 423.438L631.621 423.714L632.018 423.945C632.529 425.064 633.031 426.192 633.506 427.331L630.53 425.59L623.987 436.85L635.243 443.434L637.659 439.274C637.936 440.248 638.206 441.231 638.461 442.219L637.12 444.528L639.331 445.822C639.542 446.773 639.743 447.729 639.932 448.689L636.027 446.406L630.137 456.542L641.393 463.124L641.838 462.355C641.946 463.635 642.038 464.92 642.11 466.213L635.636 477.355L642.096 481.133C642.051 481.938 641.999 482.746 641.941 483.558L634.545 479.231L628.003 490.493L638.132 496.415L641.178 491.171C640.936 493.095 640.655 495.023 640.332 496.954L640.008 497.51L640.216 497.632C640.086 498.391 639.951 499.151 639.809 499.908L638.917 499.387L632.374 510.647L636.698 513.177C636.493 513.893 636.29 514.609 636.077 515.326L631.283 512.523L624.74 523.784L631.758 527.887C631.49 528.567 631.228 529.249 630.948 529.929L623.649 525.662L617.107 536.921L625.538 541.851C656.259 480.793 643.873 411.29 595.804 383.181ZM461.897 534.163L473.152 540.744L479.695 529.483L468.441 522.902L461.897 534.163ZM550.449 533.137L561.702 539.718L568.244 528.458L556.99 521.878L550.449 533.137ZM428.004 531.945L439.259 538.526L445.802 527.266L434.548 520.687L428.004 531.945ZM516.555 530.921L527.807 537.499L534.352 526.243L523.099 519.661L516.555 530.921ZM605.107 529.896L605.106 529.897L615.234 535.819L621.777 524.561L611.649 518.637L605.107 529.896ZM482.662 528.703L493.915 535.284L500.459 524.024L489.205 517.442L482.662 528.703ZM571.21 527.68L582.465 534.26L589.009 523.001L589.01 523L577.753 516.419L571.21 527.68ZM448.769 526.486L460.024 533.068L466.567 521.808L455.312 515.227L448.769 526.486ZM537.321 525.461L548.572 532.039L555.115 520.781L543.864 514.2L537.321 525.461ZM503.425 523.244L514.68 529.825L521.223 518.565L509.968 511.983L503.425 523.244ZM591.975 522.221L591.977 522.22L603.23 528.799L609.772 517.543L598.517 510.961L591.975 522.221ZM469.531 521.027L480.784 527.609L487.328 516.35L487.329 516.348L476.075 509.77L469.531 521.027ZM558.082 520.003L569.335 526.582L575.879 515.323V515.322L564.625 508.744L558.082 520.003ZM435.639 518.81L446.892 525.39L453.435 514.131L442.18 507.55L435.639 518.81ZM524.19 517.785L535.442 524.361L541.984 513.103L530.732 506.524L524.19 517.785ZM612.739 516.759L622.867 522.681L629.41 511.42L619.282 505.498L612.739 516.759ZM490.294 515.566L501.548 522.147L508.092 510.888V510.887L496.838 504.308L490.294 515.566ZM578.846 514.541L590.1 521.122L596.643 509.863L585.387 503.283L578.846 514.541ZM320.484 477.962C321.647 473.7 326.045 471.186 330.308 472.348L345.725 476.552C349.987 477.714 352.501 482.112 351.339 486.374L343.529 515.015C342.367 519.277 337.969 521.79 333.707 520.628L318.289 516.425C314.027 515.262 311.514 510.864 312.676 506.602L320.484 477.962ZM456.399 513.35L467.655 519.932L474.199 508.673L474.201 508.672L462.943 502.088L456.399 513.35ZM544.953 512.326L556.206 518.906L562.75 507.646L562.749 507.645L551.497 501.067L544.953 512.326ZM422.508 511.134L433.763 517.714L440.306 506.455H440.307L429.051 499.873L422.508 511.134ZM511.059 510.106L522.312 516.688L528.855 505.429L517.601 498.849L511.059 510.106ZM599.61 509.082L599.609 509.083L610.864 515.663L617.408 504.403L606.152 497.822L599.61 509.082ZM477.164 507.89L488.417 514.471L494.96 503.21L494.962 503.209L483.707 496.629L477.164 507.89ZM565.715 506.866L576.968 513.444L583.51 502.188L572.258 495.607L565.715 506.866ZM443.271 505.674L454.525 512.254L461.068 500.995L449.813 494.413L443.271 505.674ZM531.82 504.647L543.073 511.227L549.615 499.968H549.617L538.364 493.388L531.82 504.647ZM620.373 503.625L630.5 509.545L637.044 498.286L626.916 492.364L620.373 503.625ZM497.929 502.428L509.182 509.009L515.724 497.748L504.471 491.169L497.929 502.428ZM586.479 501.404L597.733 507.987L604.276 496.726L593.021 490.146L586.479 501.404ZM464.035 500.213L475.292 506.794L481.835 495.534H481.834L470.579 488.954L464.035 500.213ZM552.588 499.188L563.839 505.767L570.381 494.509L559.13 487.931L552.588 499.188ZM430.141 497.996L441.395 504.577L447.938 493.316L436.684 486.735L430.141 497.996ZM518.692 496.971L529.946 503.552L536.489 492.291L525.235 485.71L518.692 496.971ZM607.242 495.946L618.497 502.528L625.04 491.268L613.785 484.686L607.242 495.946ZM484.798 494.752L496.053 501.333L502.594 490.073L491.341 483.493L484.798 494.752ZM573.351 493.728L584.603 500.309L591.146 489.05V489.048L579.893 482.47L573.351 493.728ZM450.903 492.535L462.158 499.116L468.702 487.856L457.446 481.274L450.903 492.535ZM539.456 491.511L550.71 498.091L557.251 486.832L545.999 480.252L539.456 491.511ZM505.562 489.294L516.814 495.871L523.358 484.615L512.104 478.033L505.562 489.294ZM594.11 488.271L605.364 494.851L611.909 483.589L600.654 477.009L594.11 488.271ZM471.669 487.077L482.926 493.657L489.468 482.398L478.213 475.816L471.669 487.077ZM560.221 486.053L571.473 492.631L578.016 481.37L566.764 474.793L560.221 486.053ZM437.773 484.859L449.027 491.44L455.571 480.179L444.316 473.599L437.773 484.859ZM526.324 483.835L537.578 490.413L544.121 479.154L532.866 472.574L526.324 483.835ZM614.877 482.808H614.876L626.131 489.389L632.675 478.13L621.42 471.55L614.877 482.808ZM492.431 481.616L503.686 488.195L510.229 476.936L510.227 476.935L498.975 470.356L492.431 481.616ZM580.98 480.592L592.233 487.17L598.777 475.911L587.524 469.332L580.98 480.592ZM458.536 479.398L469.792 485.98L476.335 474.72L465.08 468.14L458.536 479.398ZM547.088 478.374L558.341 484.951L564.883 473.694L553.632 467.114L547.088 478.374ZM424.645 477.183L435.899 483.764L442.443 472.504L431.188 465.922L424.645 477.183ZM513.194 476.156L524.449 482.737L530.992 471.478L530.99 471.479L519.737 464.897L513.194 476.156ZM601.744 475.131L612.999 481.712L619.543 470.452L608.286 463.871L601.744 475.131ZM479.302 473.938L490.559 480.521L497.102 469.26H497.101L485.845 462.678L479.302 473.938ZM567.854 472.915L579.105 479.496L585.648 468.235L574.396 461.655L567.854 472.915ZM445.407 471.722L456.661 478.303L463.204 467.044L463.206 467.043L451.95 460.461L445.407 471.722ZM533.959 470.696L545.213 477.277L551.757 466.019L540.502 459.436L533.959 470.696ZM622.509 469.674L633.764 476.254L640.308 464.995L629.053 458.413L622.509 469.674ZM47.2402 369.128C48.4027 364.865 52.8009 362.351 57.0635 363.514L72.4795 367.718C76.742 368.88 79.2557 373.278 78.0938 377.54L52.8584 470.091C51.6962 474.353 47.2987 476.867 43.0361 475.705L27.6191 471.501C23.3566 470.339 20.8436 465.941 22.0059 461.679L47.2402 369.128ZM500.063 468.48L511.317 475.062L517.858 463.802L517.859 463.8L506.606 457.223L500.063 468.48ZM588.616 467.456L599.869 474.033L606.411 462.776L595.157 456.194L588.616 467.456ZM466.171 466.263L477.426 472.844L483.97 461.584L472.714 455.003L466.171 466.263ZM554.722 465.239L565.976 471.819L572.519 460.559L572.518 460.557L561.266 453.978L554.722 465.239ZM432.278 464.045L443.534 470.626L450.076 459.366L438.821 452.784L432.278 464.045ZM520.828 463.02L532.081 469.601L538.626 458.34L538.623 458.339L527.372 451.761L520.828 463.02ZM609.377 461.993L620.634 468.577L627.177 457.316L615.92 450.734L609.377 461.993ZM486.936 460.802L498.192 467.383L504.735 456.125H504.733L493.479 449.543L486.936 460.802ZM575.487 459.779L586.74 466.357L593.283 455.098L593.282 455.099L582.03 448.519L575.487 459.779ZM453.041 458.587L464.294 465.165L470.838 453.906L459.584 447.326L453.041 458.587ZM541.592 457.562L552.847 464.143L559.39 452.882V452.881L548.135 446.302L541.592 457.562ZM507.698 455.344L518.952 461.925L525.494 450.662L514.242 444.083L507.698 455.344ZM596.248 454.318L607.501 460.899L614.045 449.641L602.792 443.061L596.248 454.318ZM473.805 453.126L485.06 459.707L491.601 448.449L491.603 448.448L480.347 441.867L473.805 453.126ZM562.354 452.1L573.608 458.682L580.149 447.422L580.151 447.421L568.898 440.841L562.354 452.1ZM439.911 450.907L451.167 457.489L457.71 446.229L446.454 439.646L439.911 450.907ZM528.462 449.882L539.714 456.462L546.257 445.202L535.005 438.622L528.462 449.882ZM617.011 448.858L628.267 455.44L634.155 445.306L622.899 438.726L617.011 448.858ZM494.568 447.667L505.825 454.248L512.366 442.988L501.111 436.405L494.568 447.667ZM583.12 446.644L594.372 453.222L600.915 441.962H600.914L589.663 435.384L583.12 446.644ZM460.675 445.449L471.93 452.029L478.473 440.771L478.472 440.771L467.216 434.189L460.675 445.449ZM549.226 444.422L560.48 451.003L567.023 439.743H567.022L555.768 433.164L549.226 444.422ZM515.332 442.206L526.583 448.786L533.126 437.526L521.875 430.946L515.332 442.206ZM603.883 441.184L615.135 447.764L621.023 437.629L609.771 431.049L603.883 441.184ZM481.438 439.988L492.693 446.57L499.236 435.31L487.98 428.728L481.438 439.988ZM569.989 438.967L581.242 445.546L587.786 434.286V434.285L576.531 427.707L569.989 438.967ZM447.543 437.771L458.799 444.354L465.342 433.096L465.343 433.095L454.086 426.514L447.543 437.771ZM536.097 436.748L547.348 443.325L553.893 432.065L542.64 425.487L536.097 436.748ZM502.201 434.529L513.457 441.112L520.001 429.853L508.745 423.269L502.201 434.529ZM590.753 433.506L602.006 440.086L607.895 429.951L596.642 423.37L590.753 433.506ZM468.308 432.312L479.562 438.894L486.106 427.633L474.851 421.052L468.308 432.312ZM556.857 431.288L568.111 437.869L574.653 426.608L574.655 426.607L563.4 420.027L556.857 431.288ZM450.264 426.02C449.734 426.702 449.209 427.394 448.692 428.093C446.917 430.471 445.195 432.915 443.528 435.423L445.669 436.675L452.212 425.416L451.2 424.826C450.888 425.223 450.574 425.619 450.264 426.02ZM610.864 429.171L622.117 435.747L628.66 424.487L628.658 424.488L617.407 417.91L610.864 429.171ZM522.966 429.069L534.218 435.649L540.761 424.391V424.39L529.508 417.812L522.966 429.069ZM2.49805 391.26C3.66036 386.997 8.05784 384.484 12.3203 385.646L27.7373 389.85C31.9999 391.012 34.5136 395.409 33.3516 399.672L25.542 428.312C24.3798 432.574 19.9823 435.088 15.7197 433.926L0.302734 429.722C-3.95983 428.559 -6.47279 424.162 -5.31055 419.899L2.49805 391.26ZM489.071 426.853L500.326 433.434L506.869 422.173L495.614 415.592L489.071 426.853ZM577.622 425.829L588.877 432.41L594.767 422.274H594.765L583.512 415.694L577.622 425.829ZM455.179 424.635L466.434 431.216L472.978 419.956L461.722 413.374L455.179 424.635ZM543.729 423.61L554.98 430.189L561.523 418.931L550.271 412.352L543.729 423.61ZM597.733 421.495L608.985 428.072L615.529 416.812L604.277 410.234L597.733 421.495ZM509.834 421.392L521.091 427.975L527.634 416.714L516.377 410.133L509.834 421.392ZM475.941 419.175L487.195 425.756L493.739 414.495L482.484 407.915L475.941 419.175ZM564.492 418.153L575.745 424.731L581.634 414.597L570.381 408.019L564.492 418.153ZM455.798 419.244C454.87 420.32 453.951 421.411 453.047 422.519C452.886 422.715 452.727 422.912 452.567 423.109L453.302 423.538L455.798 419.244ZM530.597 415.935L541.851 422.514L548.394 411.253L537.141 404.676L530.597 415.935ZM584.602 413.814L595.854 420.396L602.398 409.135L591.145 402.554L584.602 413.814ZM496.704 413.716L507.958 420.297L514.503 409.038L503.248 402.457L496.704 413.716ZM472.87 402.295C469.449 405.193 466.118 408.281 462.895 411.55L474.064 418.079L480.607 406.818L472.87 402.295ZM551.36 410.476L562.614 417.056L568.503 406.92L557.25 400.34L551.36 410.476ZM517.468 408.258L528.724 414.838L535.267 403.576L524.011 396.997L517.468 408.258ZM571.473 406.139L582.727 412.72L589.271 401.46L578.016 394.877L571.473 406.139ZM483.572 406.039L494.829 412.619L501.37 401.359H501.371L490.116 394.778L483.572 406.039ZM538.23 402.798L549.483 409.378L555.372 399.242H555.373L544.119 392.663L538.23 402.798ZM592.238 400.679L603.491 407.259L610.034 396.001L610.031 396L598.779 389.421L592.238 400.679ZM504.338 400.58L515.593 407.162L522.134 395.9L510.88 389.321L504.338 400.58ZM558.342 398.463L569.596 405.043L576.139 393.782L576.138 393.781L564.885 387.202L558.342 398.463ZM486.009 392.378C482.133 394.969 478.338 397.785 474.643 400.818L481.697 404.942L488.241 393.684L486.009 392.378ZM525.102 395.12L536.357 401.702L542.246 391.568H542.247L530.989 384.985L525.102 395.12ZM579.105 393L590.359 399.582L596.902 388.322L585.646 381.741L579.105 393ZM501.114 383.61C498.923 384.698 496.747 385.854 494.591 387.078L491.206 392.901L502.461 399.482L509.005 388.225L501.114 383.61ZM545.211 390.784L556.464 397.365L563.008 386.105L551.754 379.523L545.211 390.784ZM511.972 387.443L523.224 394.021L529.113 383.89L517.859 377.309L511.972 387.443ZM565.975 385.324L577.228 391.902L583.769 380.646L572.518 374.065L565.975 385.324ZM490.772 389.329C489.856 389.89 488.943 390.463 488.034 391.048L489.333 391.807L490.772 389.329ZM641.943 316.45C642.228 306.514 637.075 305.504 630.496 309.673C626.498 312.204 599.503 328.59 576.313 344.148C565.714 351.262 575.933 358.309 577.812 359.497C577.815 359.496 577.816 359.498 577.816 359.499C581.234 360.376 584.62 361.435 587.964 362.68C593.286 364.617 598.471 367.046 603.48 369.976C603.6 370.045 603.718 370.113 603.836 370.188C603.912 370.228 603.987 370.276 604.062 370.317C612.479 375.241 619.82 381.295 626.103 388.206C628.953 390.707 638.28 397.558 639.259 380.954L639.257 380.951C640.846 354.031 641.768 322.668 641.943 316.45ZM538.937 372.031C538.36 372.101 537.783 372.177 537.206 372.257C537.632 372.198 538.059 372.141 538.485 372.089L532.083 383.107L543.339 389.69L549.882 378.431L538.937 372.031ZM515.139 377.669C511.215 379.054 507.318 380.657 503.466 382.473L510.096 386.349L515.139 377.669ZM537.056 372.277C531.372 373.07 525.679 374.338 520.027 376.061L530.206 382.013L535.753 372.469C536.188 372.402 536.622 372.338 537.056 372.277ZM-112.78 21.0264C-100.842 2.91472 -80.6682 -5.04502 -67.9531 3.33789L230.466 226.792L230.492 226.751L231.675 227.698L232.763 228.512L232.739 228.548L247.896 240.669L350.584 319.699C356.351 318.309 362.486 319.143 367.632 322.538C367.645 322.547 367.656 322.554 367.667 322.561C367.678 322.567 367.688 322.575 367.699 322.582C378.064 329.414 373.27 338.097 365.952 349.198L365.953 349.202C358.635 360.304 351.562 369.622 341.197 362.79C336.236 359.521 333.089 354.48 331.95 348.9L208.907 279.402L199.648 274.189L199.678 274.143L-124.137 88.5693C-136.852 80.1861 -137.489 58.5101 -125.551 40.3984L-112.78 21.0264ZM500.999 201.835C528.061 201.835 549.999 223.773 549.999 250.835C549.999 277.897 528.061 299.835 500.999 299.835C473.937 299.835 451.999 277.897 451.999 250.835C451.999 223.773 473.937 201.835 500.999 201.835Z" fill="url(#paint0_linear_12_6879)"/>
<defs>
<linearGradient id="paint0_linear_12_6879" x1="261.583" y1="219.836" x2="261.583" y2="584.835" gradientUnits="userSpaceOnUse">
<stop stop-color="white" stop-opacity="0.32"/>
<stop offset="0.519231" stop-color="white" stop-opacity="0.84"/>
<stop offset="1" stop-color="white" stop-opacity="0.68"/>
</linearGradient>
</defs>
</svg>
