<svg width="37" height="60" viewBox="0 0 37 60" fill="none" xmlns="http://www.w3.org/2000/svg">
<path d="M36.5305 18.1405C36.4605 8.05046 28.2305 -0.0695508 18.1405 0.000449204C8.05046 0.0704492 -0.0695508 8.30046 0.000449204 18.3905C0.0404492 23.6005 4.98045 34.3305 9.75045 43.5005C9.83045 43.6505 9.90049 43.7905 9.98049 43.9405C10.1105 44.1905 10.2404 44.4405 10.3704 44.6805C10.5304 44.9805 10.6805 45.2705 10.8305 45.5605C10.9505 45.7905 11.0805 46.0305 11.2005 46.2605C11.3605 46.5605 11.5205 46.8505 11.6705 47.1405C11.7905 47.3605 11.9105 47.5805 12.0205 47.7905C12.1805 48.0805 12.3304 48.3605 12.4904 48.6505C12.6104 48.8605 12.7205 49.0805 12.8405 49.2905C12.9905 49.5605 13.1305 49.8305 13.2805 50.0905C13.3905 50.3005 13.5104 50.5105 13.6204 50.7105C13.7704 50.9805 13.9104 51.2405 14.0604 51.5005C14.1604 51.6805 14.2604 51.8605 14.3604 52.0405C14.5104 52.3105 14.6505 52.5605 14.7905 52.8205C14.8805 52.9805 14.9704 53.1505 15.0604 53.3105C15.2004 53.5605 15.3305 53.7905 15.4705 54.0305C15.5605 54.1805 15.6405 54.3306 15.7205 54.4806C15.8505 54.7206 15.9804 54.9405 16.1104 55.1605C16.1804 55.2905 16.2605 55.4105 16.3205 55.5305C16.4505 55.7505 16.5704 55.9605 16.6804 56.1605C16.7404 56.2705 16.8104 56.3806 16.8704 56.4806C16.9904 56.6906 17.1105 56.8905 17.2205 57.0805C17.2605 57.1505 17.3005 57.2205 17.3405 57.2905C17.4405 57.4705 17.5304 57.6205 17.6204 57.7805C17.6704 57.8605 17.7205 57.9405 17.7605 58.0205C17.8305 58.1405 17.8805 58.2305 17.9505 58.3305C18.0005 58.4105 18.0505 58.5005 18.0905 58.5705C18.1405 58.6505 18.1705 58.7105 18.2105 58.7705C18.4105 59.1105 18.5305 59.3105 18.5305 59.3105C18.5305 59.3105 18.5705 59.2405 18.6305 59.1305C18.6505 59.0905 18.6705 59.0605 18.7005 59.0105C18.7305 58.9705 18.7505 58.9204 18.7805 58.8604C18.8205 58.7904 18.8605 58.7205 18.9105 58.6405C18.9505 58.5705 18.9905 58.5005 19.0305 58.4205C19.0805 58.3305 19.1405 58.2304 19.2005 58.1204C19.2505 58.0304 19.3005 57.9505 19.3505 57.8505C19.4105 57.7405 19.4804 57.6205 19.5504 57.5005C19.6204 57.3905 19.6805 57.2805 19.7505 57.1505C19.8905 56.9105 20.0305 56.6504 20.1905 56.3704C20.1905 56.3704 20.1905 56.3605 20.2005 56.3505C20.3605 56.0705 20.5205 55.7705 20.7005 55.4605C20.7605 55.3505 20.8305 55.2304 20.8905 55.1104C21.0105 54.9004 21.1205 54.6905 21.2505 54.4605C21.3305 54.3105 21.4205 54.1605 21.5005 54.0005C21.6205 53.7905 21.7304 53.5705 21.8604 53.3505C21.9604 53.1705 22.0505 53.0005 22.1505 52.8205C22.2705 52.6105 22.3805 52.3905 22.5005 52.1705C22.6005 51.9805 22.7104 51.7905 22.8104 51.5905C22.9404 51.3505 23.0805 51.0905 23.2105 50.8405C23.3105 50.6505 23.4105 50.4705 23.5105 50.2905C23.6805 49.9705 23.8505 49.6505 24.0305 49.3205C24.1805 49.0405 24.3304 48.7505 24.4904 48.4605C24.6504 48.1705 24.8005 47.8705 24.9605 47.5705C25.0805 47.3505 25.1904 47.1205 25.3104 46.8905C25.4504 46.6205 25.5905 46.3505 25.7305 46.0805C25.8505 45.8505 25.9705 45.6105 26.0905 45.3805C26.2305 45.1105 26.3605 44.8405 26.5005 44.5705C26.6305 44.3205 26.7605 44.0605 26.8905 43.8105C27.0205 43.5505 27.1505 43.2905 27.2805 43.0305C27.4105 42.7705 27.5405 42.5104 27.6705 42.2404C27.8005 41.9704 27.9405 41.7005 28.0705 41.4305C28.2005 41.1705 28.3305 40.9105 28.4605 40.6405C28.6105 40.3305 28.7605 40.0105 28.9205 39.7005C29.1305 39.2605 29.3404 38.8305 29.5504 38.3905C29.6904 38.1005 29.8205 37.8205 29.9605 37.5305C30.0905 37.2505 30.2205 36.9705 30.3505 36.7005C30.4705 36.4405 30.5905 36.1805 30.7105 35.9305C30.8405 35.6505 30.9705 35.3705 31.0905 35.0905C31.2105 34.8305 31.3204 34.5805 31.4304 34.3205C31.5504 34.0405 31.6804 33.7606 31.8004 33.4806C31.9104 33.2306 32.0205 32.9705 32.1305 32.7205C32.2505 32.4405 32.3704 32.1705 32.4904 31.8905C32.6004 31.6405 32.7004 31.3905 32.8004 31.1405C32.9104 30.8705 33.0305 30.6005 33.1405 30.3305C33.2505 30.0605 33.3605 29.7905 33.4605 29.5205C33.6405 29.0605 33.8204 28.6105 33.9904 28.1705C34.0804 27.9205 34.1805 27.6705 34.2705 27.4205C34.3605 27.1705 34.4505 26.9205 34.5405 26.6705C34.6205 26.4405 34.7005 26.2106 34.7805 25.9806C34.8605 25.7306 34.9505 25.4905 35.0205 25.2505C35.0905 25.0305 35.1605 24.8105 35.2305 24.5905C35.3005 24.3505 35.3805 24.1205 35.4505 23.8905C35.4705 23.8105 35.5005 23.7205 35.5305 23.6405C35.5305 23.6505 35.5305 23.6605 35.5205 23.6705C36.1605 21.5005 36.5305 19.6005 36.5205 18.1405H36.5305ZM18.3205 26.4505C13.4905 26.4805 9.54046 22.5905 9.51046 17.7605C9.48046 12.9305 13.3705 8.98052 18.2005 8.95052C23.0305 8.92052 26.9805 12.8105 27.0105 17.6405C27.0405 22.4705 23.1505 26.4205 18.3205 26.4505Z" fill="#000673"/>
</svg>
